<mxfile host="65bd71144e">
    <diagram id="CDDgfF9AUKFzXcaufcwi" name="Page-1">
        <mxGraphModel dx="642" dy="1118" grid="1" gridSize="10" guides="1" tooltips="1" connect="1" arrows="1" fold="1" page="1" pageScale="1" pageWidth="850" pageHeight="1100" math="0" shadow="0">
            <root>
                <mxCell id="0"/>
                <mxCell id="1" parent="0"/>
                <mxCell id="7" value="" style="edgeStyle=none;html=1;" parent="1" source="2" target="4" edge="1">
                    <mxGeometry relative="1" as="geometry"/>
                </mxCell>
                <mxCell id="2" value="CPU" style="rounded=0;whiteSpace=wrap;html=1;" parent="1" vertex="1">
                    <mxGeometry x="240" y="290" width="120" height="60" as="geometry"/>
                </mxCell>
                <mxCell id="6" value="" style="edgeStyle=none;html=1;" parent="1" source="3" target="2" edge="1">
                    <mxGeometry relative="1" as="geometry"/>
                </mxCell>
                <mxCell id="3" value="" style="rounded=0;whiteSpace=wrap;html=1;fillColor=#f0a30a;fontColor=#000000;strokeColor=#BD7000;" parent="1" vertex="1">
                    <mxGeometry x="170" y="305" width="30" height="30" as="geometry"/>
                </mxCell>
                <mxCell id="4" value="" style="rounded=0;whiteSpace=wrap;html=1;fillColor=#60a917;fontColor=#ffffff;strokeColor=#2D7600;" parent="1" vertex="1">
                    <mxGeometry x="400" y="305" width="30" height="30" as="geometry"/>
                </mxCell>
                <mxCell id="308" style="edgeStyle=none;html=1;entryX=0;entryY=0.5;entryDx=0;entryDy=0;" parent="1" source="9" target="240" edge="1">
                    <mxGeometry relative="1" as="geometry">
                        <mxPoint x="380" y="430" as="targetPoint"/>
                    </mxGeometry>
                </mxCell>
                <mxCell id="9" value="GPU" style="rounded=0;whiteSpace=wrap;html=1;" parent="1" vertex="1">
                    <mxGeometry x="240" y="390" width="120" height="60" as="geometry"/>
                </mxCell>
                <mxCell id="298" style="edgeStyle=none;html=1;exitX=1;exitY=0.5;exitDx=0;exitDy=0;entryX=0;entryY=0.5;entryDx=0;entryDy=0;" parent="1" source="133" target="9" edge="1">
                    <mxGeometry relative="1" as="geometry"/>
                </mxCell>
                <mxCell id="306" value="" style="group" parent="1" vertex="1" connectable="0">
                    <mxGeometry x="400" y="376" width="90" height="90" as="geometry"/>
                </mxCell>
                <mxCell id="179" value="" style="group;fillColor=#60a917;fontColor=#ffffff;strokeColor=#2D7600;container=0;" parent="306" vertex="1" connectable="0">
                    <mxGeometry x="60" width="30" height="30" as="geometry"/>
                </mxCell>
                <mxCell id="218" value="" style="group;fillColor=#60a917;fontColor=#ffffff;strokeColor=#2D7600;container=0;" parent="306" vertex="1" connectable="0">
                    <mxGeometry x="60" y="30" width="30" height="30" as="geometry"/>
                </mxCell>
                <mxCell id="257" value="" style="group;fillColor=#60a917;fontColor=#ffffff;strokeColor=#2D7600;container=0;" parent="306" vertex="1" connectable="0">
                    <mxGeometry x="60" y="60" width="30" height="30" as="geometry"/>
                </mxCell>
                <mxCell id="180" value="" style="group;fillColor=#60a917;fontColor=#ffffff;strokeColor=#2D7600;container=0;" parent="306" vertex="1" connectable="0">
                    <mxGeometry x="60" width="30" height="30" as="geometry"/>
                </mxCell>
                <mxCell id="210" value="" style="group;fillColor=#60a917;fontColor=#ffffff;strokeColor=#2D7600;container=0;" parent="306" vertex="1" connectable="0">
                    <mxGeometry x="60" y="10" width="30" height="10" as="geometry"/>
                </mxCell>
                <mxCell id="214" value="" style="group;fillColor=#60a917;fontColor=#ffffff;strokeColor=#2D7600;container=0;" parent="306" vertex="1" connectable="0">
                    <mxGeometry x="60" y="20" width="30" height="10" as="geometry"/>
                </mxCell>
                <mxCell id="181" value="" style="rounded=0;whiteSpace=wrap;html=1;fillColor=#60a917;fontColor=#ffffff;strokeColor=#2D7600;container=0;" parent="306" vertex="1">
                    <mxGeometry x="80" width="10" height="10" as="geometry"/>
                </mxCell>
                <mxCell id="182" value="" style="rounded=0;whiteSpace=wrap;html=1;fillColor=#60a917;fontColor=#ffffff;strokeColor=#2D7600;container=0;" parent="306" vertex="1">
                    <mxGeometry x="70" width="10" height="10" as="geometry"/>
                </mxCell>
                <mxCell id="183" value="" style="rounded=0;whiteSpace=wrap;html=1;fillColor=#60a917;fontColor=#ffffff;strokeColor=#2D7600;container=0;" parent="306" vertex="1">
                    <mxGeometry x="60" width="10" height="10" as="geometry"/>
                </mxCell>
                <mxCell id="184" value="" style="group;fillColor=#60a917;fontColor=#ffffff;strokeColor=#2D7600;container=0;" parent="306" vertex="1" connectable="0">
                    <mxGeometry x="30" width="30" height="30" as="geometry"/>
                </mxCell>
                <mxCell id="185" value="" style="group;fillColor=#60a917;fontColor=#ffffff;strokeColor=#2D7600;container=0;" parent="306" vertex="1" connectable="0">
                    <mxGeometry x="30" width="30" height="10" as="geometry"/>
                </mxCell>
                <mxCell id="189" value="" style="group;fillColor=#60a917;fontColor=#ffffff;strokeColor=#2D7600;container=0;" parent="306" vertex="1" connectable="0">
                    <mxGeometry x="30" y="10" width="30" height="20" as="geometry"/>
                </mxCell>
                <mxCell id="206" value="" style="group;fillColor=#60a917;fontColor=#ffffff;strokeColor=#2D7600;container=0;" parent="306" vertex="1" connectable="0">
                    <mxGeometry x="30" y="20" width="30" height="10" as="geometry"/>
                </mxCell>
                <mxCell id="186" value="" style="rounded=0;whiteSpace=wrap;html=1;fillColor=#60a917;fontColor=#ffffff;strokeColor=#2D7600;container=0;" parent="306" vertex="1">
                    <mxGeometry x="50" width="10" height="10" as="geometry"/>
                </mxCell>
                <mxCell id="187" value="" style="rounded=0;whiteSpace=wrap;html=1;fillColor=#60a917;fontColor=#ffffff;strokeColor=#2D7600;container=0;" parent="306" vertex="1">
                    <mxGeometry x="40" width="10" height="10" as="geometry"/>
                </mxCell>
                <mxCell id="188" value="" style="rounded=0;whiteSpace=wrap;html=1;fillColor=#60a917;fontColor=#ffffff;strokeColor=#2D7600;container=0;" parent="306" vertex="1">
                    <mxGeometry x="30" width="10" height="10" as="geometry"/>
                </mxCell>
                <mxCell id="190" value="" style="rounded=0;whiteSpace=wrap;html=1;fillColor=#60a917;fontColor=#ffffff;strokeColor=#2D7600;container=0;" parent="306" vertex="1">
                    <mxGeometry x="50" y="10" width="10" height="10" as="geometry"/>
                </mxCell>
                <mxCell id="191" value="" style="rounded=0;whiteSpace=wrap;html=1;fillColor=#60a917;fontColor=#ffffff;strokeColor=#2D7600;container=0;" parent="306" vertex="1">
                    <mxGeometry x="40" y="10" width="10" height="10" as="geometry"/>
                </mxCell>
                <mxCell id="192" value="" style="rounded=0;whiteSpace=wrap;html=1;fillColor=#60a917;fontColor=#ffffff;strokeColor=#2D7600;container=0;" parent="306" vertex="1">
                    <mxGeometry x="30" y="10" width="10" height="10" as="geometry"/>
                </mxCell>
                <mxCell id="193" value="" style="group;fillColor=#60a917;fontColor=#ffffff;strokeColor=#2D7600;container=0;" parent="306" vertex="1" connectable="0">
                    <mxGeometry width="30" height="30" as="geometry"/>
                </mxCell>
                <mxCell id="194" value="" style="group;fillColor=#60a917;fontColor=#ffffff;strokeColor=#2D7600;container=0;" parent="306" vertex="1" connectable="0">
                    <mxGeometry width="30" height="10" as="geometry"/>
                </mxCell>
                <mxCell id="198" value="" style="group;fillColor=#60a917;fontColor=#ffffff;strokeColor=#2D7600;container=0;" parent="306" vertex="1" connectable="0">
                    <mxGeometry y="10" width="30" height="10" as="geometry"/>
                </mxCell>
                <mxCell id="202" value="" style="group;fillColor=#60a917;fontColor=#ffffff;strokeColor=#2D7600;container=0;" parent="306" vertex="1" connectable="0">
                    <mxGeometry y="20" width="30" height="10" as="geometry"/>
                </mxCell>
                <mxCell id="195" value="" style="rounded=0;whiteSpace=wrap;html=1;fillColor=#60a917;fontColor=#ffffff;strokeColor=#2D7600;container=0;" parent="306" vertex="1">
                    <mxGeometry x="20" width="10" height="10" as="geometry"/>
                </mxCell>
                <mxCell id="196" value="" style="rounded=0;whiteSpace=wrap;html=1;fillColor=#60a917;fontColor=#ffffff;strokeColor=#2D7600;container=0;" parent="306" vertex="1">
                    <mxGeometry x="10" width="10" height="10" as="geometry"/>
                </mxCell>
                <mxCell id="197" value="" style="rounded=0;whiteSpace=wrap;html=1;fillColor=#60a917;fontColor=#ffffff;strokeColor=#2D7600;container=0;" parent="306" vertex="1">
                    <mxGeometry width="10" height="10" as="geometry"/>
                </mxCell>
                <mxCell id="199" value="" style="rounded=0;whiteSpace=wrap;html=1;fillColor=#60a917;fontColor=#ffffff;strokeColor=#2D7600;container=0;" parent="306" vertex="1">
                    <mxGeometry x="20" y="10" width="10" height="10" as="geometry"/>
                </mxCell>
                <mxCell id="200" value="" style="rounded=0;whiteSpace=wrap;html=1;fillColor=#60a917;fontColor=#ffffff;strokeColor=#2D7600;container=0;" parent="306" vertex="1">
                    <mxGeometry x="10" y="10" width="10" height="10" as="geometry"/>
                </mxCell>
                <mxCell id="201" value="" style="rounded=0;whiteSpace=wrap;html=1;fillColor=#60a917;fontColor=#ffffff;strokeColor=#2D7600;container=0;" parent="306" vertex="1">
                    <mxGeometry y="10" width="10" height="10" as="geometry"/>
                </mxCell>
                <mxCell id="203" value="" style="rounded=0;whiteSpace=wrap;html=1;fillColor=#60a917;fontColor=#ffffff;strokeColor=#2D7600;container=0;" parent="306" vertex="1">
                    <mxGeometry x="20" y="20" width="10" height="10" as="geometry"/>
                </mxCell>
                <mxCell id="204" value="" style="rounded=0;whiteSpace=wrap;html=1;fillColor=#60a917;fontColor=#ffffff;strokeColor=#2D7600;container=0;" parent="306" vertex="1">
                    <mxGeometry x="10" y="20" width="10" height="10" as="geometry"/>
                </mxCell>
                <mxCell id="205" value="" style="rounded=0;whiteSpace=wrap;html=1;fillColor=#60a917;fontColor=#ffffff;strokeColor=#2D7600;container=0;" parent="306" vertex="1">
                    <mxGeometry y="20" width="10" height="10" as="geometry"/>
                </mxCell>
                <mxCell id="207" value="" style="rounded=0;whiteSpace=wrap;html=1;fillColor=#60a917;fontColor=#ffffff;strokeColor=#2D7600;container=0;" parent="306" vertex="1">
                    <mxGeometry x="50" y="20" width="10" height="10" as="geometry"/>
                </mxCell>
                <mxCell id="208" value="" style="rounded=0;whiteSpace=wrap;html=1;fillColor=#60a917;fontColor=#ffffff;strokeColor=#2D7600;container=0;" parent="306" vertex="1">
                    <mxGeometry x="40" y="20" width="10" height="10" as="geometry"/>
                </mxCell>
                <mxCell id="209" value="" style="rounded=0;whiteSpace=wrap;html=1;fillColor=#60a917;fontColor=#ffffff;strokeColor=#2D7600;container=0;" parent="306" vertex="1">
                    <mxGeometry x="30" y="20" width="10" height="10" as="geometry"/>
                </mxCell>
                <mxCell id="211" value="" style="rounded=0;whiteSpace=wrap;html=1;fillColor=#60a917;fontColor=#ffffff;strokeColor=#2D7600;container=0;" parent="306" vertex="1">
                    <mxGeometry x="80" y="10" width="10" height="10" as="geometry"/>
                </mxCell>
                <mxCell id="212" value="" style="rounded=0;whiteSpace=wrap;html=1;fillColor=#60a917;fontColor=#ffffff;strokeColor=#2D7600;container=0;" parent="306" vertex="1">
                    <mxGeometry x="70" y="10" width="10" height="10" as="geometry"/>
                </mxCell>
                <mxCell id="213" value="" style="rounded=0;whiteSpace=wrap;html=1;fillColor=#60a917;fontColor=#ffffff;strokeColor=#2D7600;container=0;" parent="306" vertex="1">
                    <mxGeometry x="60" y="10" width="10" height="10" as="geometry"/>
                </mxCell>
                <mxCell id="215" value="" style="rounded=0;whiteSpace=wrap;html=1;fillColor=#60a917;fontColor=#ffffff;strokeColor=#2D7600;container=0;" parent="306" vertex="1">
                    <mxGeometry x="80" y="20" width="10" height="10" as="geometry"/>
                </mxCell>
                <mxCell id="216" value="" style="rounded=0;whiteSpace=wrap;html=1;fillColor=#60a917;fontColor=#ffffff;strokeColor=#2D7600;container=0;" parent="306" vertex="1">
                    <mxGeometry x="70" y="20" width="10" height="10" as="geometry"/>
                </mxCell>
                <mxCell id="217" value="" style="rounded=0;whiteSpace=wrap;html=1;fillColor=#60a917;fontColor=#ffffff;strokeColor=#2D7600;container=0;" parent="306" vertex="1">
                    <mxGeometry x="60" y="20" width="10" height="10" as="geometry"/>
                </mxCell>
                <mxCell id="219" value="" style="group;fillColor=#60a917;fontColor=#ffffff;strokeColor=#2D7600;container=0;" parent="306" vertex="1" connectable="0">
                    <mxGeometry x="60" y="30" width="30" height="30" as="geometry"/>
                </mxCell>
                <mxCell id="249" value="" style="group;fillColor=#60a917;fontColor=#ffffff;strokeColor=#2D7600;container=0;" parent="306" vertex="1" connectable="0">
                    <mxGeometry x="60" y="40" width="30" height="10" as="geometry"/>
                </mxCell>
                <mxCell id="253" value="" style="group;fillColor=#60a917;fontColor=#ffffff;strokeColor=#2D7600;container=0;" parent="306" vertex="1" connectable="0">
                    <mxGeometry x="60" y="50" width="30" height="10" as="geometry"/>
                </mxCell>
                <mxCell id="220" value="" style="rounded=0;whiteSpace=wrap;html=1;fillColor=#60a917;fontColor=#ffffff;strokeColor=#2D7600;container=0;" parent="306" vertex="1">
                    <mxGeometry x="80" y="30" width="10" height="10" as="geometry"/>
                </mxCell>
                <mxCell id="221" value="" style="rounded=0;whiteSpace=wrap;html=1;fillColor=#60a917;fontColor=#ffffff;strokeColor=#2D7600;container=0;" parent="306" vertex="1">
                    <mxGeometry x="70" y="30" width="10" height="10" as="geometry"/>
                </mxCell>
                <mxCell id="222" value="" style="rounded=0;whiteSpace=wrap;html=1;fillColor=#60a917;fontColor=#ffffff;strokeColor=#2D7600;container=0;" parent="306" vertex="1">
                    <mxGeometry x="60" y="30" width="10" height="10" as="geometry"/>
                </mxCell>
                <mxCell id="223" value="" style="group;fillColor=#60a917;fontColor=#ffffff;strokeColor=#2D7600;container=0;" parent="306" vertex="1" connectable="0">
                    <mxGeometry x="30" y="30" width="30" height="30" as="geometry"/>
                </mxCell>
                <mxCell id="224" value="" style="group;fillColor=#60a917;fontColor=#ffffff;strokeColor=#2D7600;container=0;" parent="306" vertex="1" connectable="0">
                    <mxGeometry x="30" y="30" width="30" height="10" as="geometry"/>
                </mxCell>
                <mxCell id="228" value="" style="group;fillColor=#60a917;fontColor=#ffffff;strokeColor=#2D7600;container=0;" parent="306" vertex="1" connectable="0">
                    <mxGeometry x="30" y="40" width="30" height="20" as="geometry"/>
                </mxCell>
                <mxCell id="245" value="" style="group;fillColor=#60a917;fontColor=#ffffff;strokeColor=#2D7600;container=0;" parent="306" vertex="1" connectable="0">
                    <mxGeometry x="30" y="50" width="30" height="10" as="geometry"/>
                </mxCell>
                <mxCell id="225" value="" style="rounded=0;whiteSpace=wrap;html=1;fillColor=#60a917;fontColor=#ffffff;strokeColor=#2D7600;container=0;" parent="306" vertex="1">
                    <mxGeometry x="50" y="30" width="10" height="10" as="geometry"/>
                </mxCell>
                <mxCell id="226" value="" style="rounded=0;whiteSpace=wrap;html=1;fillColor=#60a917;fontColor=#ffffff;strokeColor=#2D7600;container=0;" parent="306" vertex="1">
                    <mxGeometry x="40" y="30" width="10" height="10" as="geometry"/>
                </mxCell>
                <mxCell id="227" value="" style="rounded=0;whiteSpace=wrap;html=1;fillColor=#60a917;fontColor=#ffffff;strokeColor=#2D7600;container=0;" parent="306" vertex="1">
                    <mxGeometry x="30" y="30" width="10" height="10" as="geometry"/>
                </mxCell>
                <mxCell id="229" value="" style="rounded=0;whiteSpace=wrap;html=1;fillColor=#60a917;fontColor=#ffffff;strokeColor=#2D7600;container=0;" parent="306" vertex="1">
                    <mxGeometry x="50" y="40" width="10" height="10" as="geometry"/>
                </mxCell>
                <mxCell id="230" value="" style="rounded=0;whiteSpace=wrap;html=1;fillColor=#60a917;fontColor=#ffffff;strokeColor=#2D7600;container=0;" parent="306" vertex="1">
                    <mxGeometry x="40" y="40" width="10" height="10" as="geometry"/>
                </mxCell>
                <mxCell id="231" value="" style="rounded=0;whiteSpace=wrap;html=1;fillColor=#60a917;fontColor=#ffffff;strokeColor=#2D7600;container=0;" parent="306" vertex="1">
                    <mxGeometry x="30" y="40" width="10" height="10" as="geometry"/>
                </mxCell>
                <mxCell id="232" value="" style="group;fillColor=#60a917;fontColor=#ffffff;strokeColor=#2D7600;container=0;" parent="306" vertex="1" connectable="0">
                    <mxGeometry y="30" width="30" height="30" as="geometry"/>
                </mxCell>
                <mxCell id="233" value="" style="group;fillColor=#60a917;fontColor=#ffffff;strokeColor=#2D7600;container=0;" parent="306" vertex="1" connectable="0">
                    <mxGeometry y="30" width="30" height="10" as="geometry"/>
                </mxCell>
                <mxCell id="237" value="" style="group;fillColor=#60a917;fontColor=#ffffff;strokeColor=#2D7600;container=0;" parent="306" vertex="1" connectable="0">
                    <mxGeometry y="40" width="30" height="10" as="geometry"/>
                </mxCell>
                <mxCell id="241" value="" style="group;fillColor=#60a917;fontColor=#ffffff;strokeColor=#2D7600;container=0;" parent="306" vertex="1" connectable="0">
                    <mxGeometry y="50" width="30" height="10" as="geometry"/>
                </mxCell>
                <mxCell id="234" value="" style="rounded=0;whiteSpace=wrap;html=1;fillColor=#60a917;fontColor=#ffffff;strokeColor=#2D7600;container=0;" parent="306" vertex="1">
                    <mxGeometry x="20" y="30" width="10" height="10" as="geometry"/>
                </mxCell>
                <mxCell id="235" value="" style="rounded=0;whiteSpace=wrap;html=1;fillColor=#60a917;fontColor=#ffffff;strokeColor=#2D7600;container=0;" parent="306" vertex="1">
                    <mxGeometry x="10" y="30" width="10" height="10" as="geometry"/>
                </mxCell>
                <mxCell id="236" value="" style="rounded=0;whiteSpace=wrap;html=1;fillColor=#60a917;fontColor=#ffffff;strokeColor=#2D7600;container=0;" parent="306" vertex="1">
                    <mxGeometry y="30" width="10" height="10" as="geometry"/>
                </mxCell>
                <mxCell id="238" value="" style="rounded=0;whiteSpace=wrap;html=1;fillColor=#60a917;fontColor=#ffffff;strokeColor=#2D7600;container=0;" parent="306" vertex="1">
                    <mxGeometry x="20" y="40" width="10" height="10" as="geometry"/>
                </mxCell>
                <mxCell id="239" value="" style="rounded=0;whiteSpace=wrap;html=1;fillColor=#60a917;fontColor=#ffffff;strokeColor=#2D7600;container=0;" parent="306" vertex="1">
                    <mxGeometry x="10" y="40" width="10" height="10" as="geometry"/>
                </mxCell>
                <mxCell id="240" value="" style="rounded=0;whiteSpace=wrap;html=1;fillColor=#60a917;fontColor=#ffffff;strokeColor=#2D7600;container=0;" parent="306" vertex="1">
                    <mxGeometry y="40" width="10" height="10" as="geometry"/>
                </mxCell>
                <mxCell id="242" value="" style="rounded=0;whiteSpace=wrap;html=1;fillColor=#60a917;fontColor=#ffffff;strokeColor=#2D7600;container=0;" parent="306" vertex="1">
                    <mxGeometry x="20" y="50" width="10" height="10" as="geometry"/>
                </mxCell>
                <mxCell id="243" value="" style="rounded=0;whiteSpace=wrap;html=1;fillColor=#60a917;fontColor=#ffffff;strokeColor=#2D7600;container=0;" parent="306" vertex="1">
                    <mxGeometry x="10" y="50" width="10" height="10" as="geometry"/>
                </mxCell>
                <mxCell id="244" value="" style="rounded=0;whiteSpace=wrap;html=1;fillColor=#60a917;fontColor=#ffffff;strokeColor=#2D7600;container=0;" parent="306" vertex="1">
                    <mxGeometry y="50" width="10" height="10" as="geometry"/>
                </mxCell>
                <mxCell id="246" value="" style="rounded=0;whiteSpace=wrap;html=1;fillColor=#60a917;fontColor=#ffffff;strokeColor=#2D7600;container=0;" parent="306" vertex="1">
                    <mxGeometry x="50" y="50" width="10" height="10" as="geometry"/>
                </mxCell>
                <mxCell id="247" value="" style="rounded=0;whiteSpace=wrap;html=1;fillColor=#60a917;fontColor=#ffffff;strokeColor=#2D7600;container=0;" parent="306" vertex="1">
                    <mxGeometry x="40" y="50" width="10" height="10" as="geometry"/>
                </mxCell>
                <mxCell id="248" value="" style="rounded=0;whiteSpace=wrap;html=1;fillColor=#60a917;fontColor=#ffffff;strokeColor=#2D7600;container=0;" parent="306" vertex="1">
                    <mxGeometry x="30" y="50" width="10" height="10" as="geometry"/>
                </mxCell>
                <mxCell id="250" value="" style="rounded=0;whiteSpace=wrap;html=1;fillColor=#60a917;fontColor=#ffffff;strokeColor=#2D7600;container=0;" parent="306" vertex="1">
                    <mxGeometry x="80" y="40" width="10" height="10" as="geometry"/>
                </mxCell>
                <mxCell id="251" value="" style="rounded=0;whiteSpace=wrap;html=1;fillColor=#60a917;fontColor=#ffffff;strokeColor=#2D7600;container=0;" parent="306" vertex="1">
                    <mxGeometry x="70" y="40" width="10" height="10" as="geometry"/>
                </mxCell>
                <mxCell id="252" value="" style="rounded=0;whiteSpace=wrap;html=1;fillColor=#60a917;fontColor=#ffffff;strokeColor=#2D7600;container=0;" parent="306" vertex="1">
                    <mxGeometry x="60" y="40" width="10" height="10" as="geometry"/>
                </mxCell>
                <mxCell id="254" value="" style="rounded=0;whiteSpace=wrap;html=1;fillColor=#60a917;fontColor=#ffffff;strokeColor=#2D7600;container=0;" parent="306" vertex="1">
                    <mxGeometry x="80" y="50" width="10" height="10" as="geometry"/>
                </mxCell>
                <mxCell id="255" value="" style="rounded=0;whiteSpace=wrap;html=1;fillColor=#60a917;fontColor=#ffffff;strokeColor=#2D7600;container=0;" parent="306" vertex="1">
                    <mxGeometry x="70" y="50" width="10" height="10" as="geometry"/>
                </mxCell>
                <mxCell id="256" value="" style="rounded=0;whiteSpace=wrap;html=1;fillColor=#60a917;fontColor=#ffffff;strokeColor=#2D7600;container=0;" parent="306" vertex="1">
                    <mxGeometry x="60" y="50" width="10" height="10" as="geometry"/>
                </mxCell>
                <mxCell id="258" value="" style="group;fillColor=#60a917;fontColor=#ffffff;strokeColor=#2D7600;container=0;" parent="306" vertex="1" connectable="0">
                    <mxGeometry x="60" y="60" width="30" height="30" as="geometry"/>
                </mxCell>
                <mxCell id="288" value="" style="group;fillColor=#60a917;fontColor=#ffffff;strokeColor=#2D7600;container=0;" parent="306" vertex="1" connectable="0">
                    <mxGeometry x="60" y="70" width="30" height="10" as="geometry"/>
                </mxCell>
                <mxCell id="292" value="" style="group;fillColor=#60a917;fontColor=#ffffff;strokeColor=#2D7600;container=0;" parent="306" vertex="1" connectable="0">
                    <mxGeometry x="60" y="80" width="30" height="10" as="geometry"/>
                </mxCell>
                <mxCell id="259" value="" style="rounded=0;whiteSpace=wrap;html=1;fillColor=#60a917;fontColor=#ffffff;strokeColor=#2D7600;container=0;" parent="306" vertex="1">
                    <mxGeometry x="80" y="60" width="10" height="10" as="geometry"/>
                </mxCell>
                <mxCell id="260" value="" style="rounded=0;whiteSpace=wrap;html=1;fillColor=#60a917;fontColor=#ffffff;strokeColor=#2D7600;container=0;" parent="306" vertex="1">
                    <mxGeometry x="70" y="60" width="10" height="10" as="geometry"/>
                </mxCell>
                <mxCell id="261" value="" style="rounded=0;whiteSpace=wrap;html=1;fillColor=#60a917;fontColor=#ffffff;strokeColor=#2D7600;container=0;" parent="306" vertex="1">
                    <mxGeometry x="60" y="60" width="10" height="10" as="geometry"/>
                </mxCell>
                <mxCell id="262" value="" style="group;fillColor=#60a917;fontColor=#ffffff;strokeColor=#2D7600;container=0;" parent="306" vertex="1" connectable="0">
                    <mxGeometry x="30" y="60" width="30" height="30" as="geometry"/>
                </mxCell>
                <mxCell id="263" value="" style="group;fillColor=#60a917;fontColor=#ffffff;strokeColor=#2D7600;container=0;" parent="306" vertex="1" connectable="0">
                    <mxGeometry x="30" y="60" width="30" height="10" as="geometry"/>
                </mxCell>
                <mxCell id="267" value="" style="group;fillColor=#60a917;fontColor=#ffffff;strokeColor=#2D7600;container=0;" parent="306" vertex="1" connectable="0">
                    <mxGeometry x="30" y="70" width="30" height="20" as="geometry"/>
                </mxCell>
                <mxCell id="284" value="" style="group;fillColor=#60a917;fontColor=#ffffff;strokeColor=#2D7600;container=0;" parent="306" vertex="1" connectable="0">
                    <mxGeometry x="30" y="80" width="30" height="10" as="geometry"/>
                </mxCell>
                <mxCell id="264" value="" style="rounded=0;whiteSpace=wrap;html=1;fillColor=#60a917;fontColor=#ffffff;strokeColor=#2D7600;container=0;" parent="306" vertex="1">
                    <mxGeometry x="50" y="60" width="10" height="10" as="geometry"/>
                </mxCell>
                <mxCell id="265" value="" style="rounded=0;whiteSpace=wrap;html=1;fillColor=#60a917;fontColor=#ffffff;strokeColor=#2D7600;container=0;" parent="306" vertex="1">
                    <mxGeometry x="40" y="60" width="10" height="10" as="geometry"/>
                </mxCell>
                <mxCell id="266" value="" style="rounded=0;whiteSpace=wrap;html=1;fillColor=#60a917;fontColor=#ffffff;strokeColor=#2D7600;container=0;" parent="306" vertex="1">
                    <mxGeometry x="30" y="60" width="10" height="10" as="geometry"/>
                </mxCell>
                <mxCell id="268" value="" style="rounded=0;whiteSpace=wrap;html=1;fillColor=#60a917;fontColor=#ffffff;strokeColor=#2D7600;container=0;" parent="306" vertex="1">
                    <mxGeometry x="50" y="70" width="10" height="10" as="geometry"/>
                </mxCell>
                <mxCell id="269" value="" style="rounded=0;whiteSpace=wrap;html=1;fillColor=#60a917;fontColor=#ffffff;strokeColor=#2D7600;container=0;" parent="306" vertex="1">
                    <mxGeometry x="40" y="70" width="10" height="10" as="geometry"/>
                </mxCell>
                <mxCell id="270" value="" style="rounded=0;whiteSpace=wrap;html=1;fillColor=#60a917;fontColor=#ffffff;strokeColor=#2D7600;container=0;" parent="306" vertex="1">
                    <mxGeometry x="30" y="70" width="10" height="10" as="geometry"/>
                </mxCell>
                <mxCell id="271" value="" style="group;fillColor=#60a917;fontColor=#ffffff;strokeColor=#2D7600;container=0;" parent="306" vertex="1" connectable="0">
                    <mxGeometry y="60" width="30" height="30" as="geometry"/>
                </mxCell>
                <mxCell id="272" value="" style="group;fillColor=#60a917;fontColor=#ffffff;strokeColor=#2D7600;container=0;" parent="306" vertex="1" connectable="0">
                    <mxGeometry y="60" width="30" height="10" as="geometry"/>
                </mxCell>
                <mxCell id="276" value="" style="group;fillColor=#60a917;fontColor=#ffffff;strokeColor=#2D7600;container=0;" parent="306" vertex="1" connectable="0">
                    <mxGeometry y="70" width="30" height="10" as="geometry"/>
                </mxCell>
                <mxCell id="280" value="" style="group;fillColor=#60a917;fontColor=#ffffff;strokeColor=#2D7600;container=0;" parent="306" vertex="1" connectable="0">
                    <mxGeometry y="80" width="30" height="10" as="geometry"/>
                </mxCell>
                <mxCell id="273" value="" style="rounded=0;whiteSpace=wrap;html=1;fillColor=#60a917;fontColor=#ffffff;strokeColor=#2D7600;container=0;" parent="306" vertex="1">
                    <mxGeometry x="20" y="60" width="10" height="10" as="geometry"/>
                </mxCell>
                <mxCell id="274" value="" style="rounded=0;whiteSpace=wrap;html=1;fillColor=#60a917;fontColor=#ffffff;strokeColor=#2D7600;container=0;" parent="306" vertex="1">
                    <mxGeometry x="10" y="60" width="10" height="10" as="geometry"/>
                </mxCell>
                <mxCell id="275" value="" style="rounded=0;whiteSpace=wrap;html=1;fillColor=#60a917;fontColor=#ffffff;strokeColor=#2D7600;container=0;" parent="306" vertex="1">
                    <mxGeometry y="60" width="10" height="10" as="geometry"/>
                </mxCell>
                <mxCell id="277" value="" style="rounded=0;whiteSpace=wrap;html=1;fillColor=#60a917;fontColor=#ffffff;strokeColor=#2D7600;container=0;" parent="306" vertex="1">
                    <mxGeometry x="20" y="70" width="10" height="10" as="geometry"/>
                </mxCell>
                <mxCell id="278" value="" style="rounded=0;whiteSpace=wrap;html=1;fillColor=#60a917;fontColor=#ffffff;strokeColor=#2D7600;container=0;" parent="306" vertex="1">
                    <mxGeometry x="10" y="70" width="10" height="10" as="geometry"/>
                </mxCell>
                <mxCell id="279" value="" style="rounded=0;whiteSpace=wrap;html=1;fillColor=#60a917;fontColor=#ffffff;strokeColor=#2D7600;container=0;" parent="306" vertex="1">
                    <mxGeometry y="70" width="10" height="10" as="geometry"/>
                </mxCell>
                <mxCell id="281" value="" style="rounded=0;whiteSpace=wrap;html=1;fillColor=#60a917;fontColor=#ffffff;strokeColor=#2D7600;container=0;" parent="306" vertex="1">
                    <mxGeometry x="20" y="80" width="10" height="10" as="geometry"/>
                </mxCell>
                <mxCell id="282" value="" style="rounded=0;whiteSpace=wrap;html=1;fillColor=#60a917;fontColor=#ffffff;strokeColor=#2D7600;container=0;" parent="306" vertex="1">
                    <mxGeometry x="10" y="80" width="10" height="10" as="geometry"/>
                </mxCell>
                <mxCell id="283" value="" style="rounded=0;whiteSpace=wrap;html=1;fillColor=#60a917;fontColor=#ffffff;strokeColor=#2D7600;container=0;" parent="306" vertex="1">
                    <mxGeometry y="80" width="10" height="10" as="geometry"/>
                </mxCell>
                <mxCell id="285" value="" style="rounded=0;whiteSpace=wrap;html=1;fillColor=#60a917;fontColor=#ffffff;strokeColor=#2D7600;container=0;" parent="306" vertex="1">
                    <mxGeometry x="50" y="80" width="10" height="10" as="geometry"/>
                </mxCell>
                <mxCell id="286" value="" style="rounded=0;whiteSpace=wrap;html=1;fillColor=#60a917;fontColor=#ffffff;strokeColor=#2D7600;container=0;" parent="306" vertex="1">
                    <mxGeometry x="40" y="80" width="10" height="10" as="geometry"/>
                </mxCell>
                <mxCell id="287" value="" style="rounded=0;whiteSpace=wrap;html=1;fillColor=#60a917;fontColor=#ffffff;strokeColor=#2D7600;container=0;" parent="306" vertex="1">
                    <mxGeometry x="30" y="80" width="10" height="10" as="geometry"/>
                </mxCell>
                <mxCell id="289" value="" style="rounded=0;whiteSpace=wrap;html=1;fillColor=#60a917;fontColor=#ffffff;strokeColor=#2D7600;container=0;" parent="306" vertex="1">
                    <mxGeometry x="80" y="70" width="10" height="10" as="geometry"/>
                </mxCell>
                <mxCell id="290" value="" style="rounded=0;whiteSpace=wrap;html=1;fillColor=#60a917;fontColor=#ffffff;strokeColor=#2D7600;container=0;" parent="306" vertex="1">
                    <mxGeometry x="70" y="70" width="10" height="10" as="geometry"/>
                </mxCell>
                <mxCell id="291" value="" style="rounded=0;whiteSpace=wrap;html=1;fillColor=#60a917;fontColor=#ffffff;strokeColor=#2D7600;container=0;" parent="306" vertex="1">
                    <mxGeometry x="60" y="70" width="10" height="10" as="geometry"/>
                </mxCell>
                <mxCell id="293" value="" style="rounded=0;whiteSpace=wrap;html=1;fillColor=#60a917;fontColor=#ffffff;strokeColor=#2D7600;container=0;" parent="306" vertex="1">
                    <mxGeometry x="80" y="80" width="10" height="10" as="geometry"/>
                </mxCell>
                <mxCell id="294" value="" style="rounded=0;whiteSpace=wrap;html=1;fillColor=#60a917;fontColor=#ffffff;strokeColor=#2D7600;container=0;" parent="306" vertex="1">
                    <mxGeometry x="70" y="80" width="10" height="10" as="geometry"/>
                </mxCell>
                <mxCell id="295" value="" style="rounded=0;whiteSpace=wrap;html=1;fillColor=#60a917;fontColor=#ffffff;strokeColor=#2D7600;container=0;" parent="306" vertex="1">
                    <mxGeometry x="60" y="80" width="10" height="10" as="geometry"/>
                </mxCell>
                <mxCell id="11" value="" style="rounded=0;whiteSpace=wrap;html=1;fillColor=#f0a30a;fontColor=#000000;strokeColor=#BD7000;container=0;" parent="1" vertex="1">
                    <mxGeometry x="190" y="375" width="10" height="10" as="geometry"/>
                </mxCell>
                <mxCell id="13" value="" style="rounded=0;whiteSpace=wrap;html=1;fillColor=#f0a30a;fontColor=#000000;strokeColor=#BD7000;container=0;" parent="1" vertex="1">
                    <mxGeometry x="180" y="375" width="10" height="10" as="geometry"/>
                </mxCell>
                <mxCell id="14" value="" style="rounded=0;whiteSpace=wrap;html=1;fillColor=#f0a30a;fontColor=#000000;strokeColor=#BD7000;container=0;" parent="1" vertex="1">
                    <mxGeometry x="170" y="375" width="10" height="10" as="geometry"/>
                </mxCell>
                <mxCell id="77" value="" style="rounded=0;whiteSpace=wrap;html=1;fillColor=#f0a30a;fontColor=#000000;strokeColor=#BD7000;container=0;" parent="1" vertex="1">
                    <mxGeometry x="160" y="375" width="10" height="10" as="geometry"/>
                </mxCell>
                <mxCell id="78" value="" style="rounded=0;whiteSpace=wrap;html=1;fillColor=#f0a30a;fontColor=#000000;strokeColor=#BD7000;container=0;" parent="1" vertex="1">
                    <mxGeometry x="150" y="375" width="10" height="10" as="geometry"/>
                </mxCell>
                <mxCell id="79" value="" style="rounded=0;whiteSpace=wrap;html=1;fillColor=#f0a30a;fontColor=#000000;strokeColor=#BD7000;container=0;" parent="1" vertex="1">
                    <mxGeometry x="140" y="375" width="10" height="10" as="geometry"/>
                </mxCell>
                <mxCell id="81" value="" style="rounded=0;whiteSpace=wrap;html=1;fillColor=#f0a30a;fontColor=#000000;strokeColor=#BD7000;container=0;" parent="1" vertex="1">
                    <mxGeometry x="160" y="385" width="10" height="10" as="geometry"/>
                </mxCell>
                <mxCell id="82" value="" style="rounded=0;whiteSpace=wrap;html=1;fillColor=#f0a30a;fontColor=#000000;strokeColor=#BD7000;container=0;" parent="1" vertex="1">
                    <mxGeometry x="150" y="385" width="10" height="10" as="geometry"/>
                </mxCell>
                <mxCell id="83" value="" style="rounded=0;whiteSpace=wrap;html=1;fillColor=#f0a30a;fontColor=#000000;strokeColor=#BD7000;container=0;" parent="1" vertex="1">
                    <mxGeometry x="140" y="385" width="10" height="10" as="geometry"/>
                </mxCell>
                <mxCell id="90" value="" style="rounded=0;whiteSpace=wrap;html=1;fillColor=#f0a30a;fontColor=#000000;strokeColor=#BD7000;container=0;" parent="1" vertex="1">
                    <mxGeometry x="130" y="375" width="10" height="10" as="geometry"/>
                </mxCell>
                <mxCell id="91" value="" style="rounded=0;whiteSpace=wrap;html=1;fillColor=#f0a30a;fontColor=#000000;strokeColor=#BD7000;container=0;" parent="1" vertex="1">
                    <mxGeometry x="120" y="375" width="10" height="10" as="geometry"/>
                </mxCell>
                <mxCell id="92" value="" style="rounded=0;whiteSpace=wrap;html=1;fillColor=#f0a30a;fontColor=#000000;strokeColor=#BD7000;container=0;" parent="1" vertex="1">
                    <mxGeometry x="110" y="375" width="10" height="10" as="geometry"/>
                </mxCell>
                <mxCell id="94" value="" style="rounded=0;whiteSpace=wrap;html=1;fillColor=#f0a30a;fontColor=#000000;strokeColor=#BD7000;container=0;" parent="1" vertex="1">
                    <mxGeometry x="130" y="385" width="10" height="10" as="geometry"/>
                </mxCell>
                <mxCell id="95" value="" style="rounded=0;whiteSpace=wrap;html=1;fillColor=#f0a30a;fontColor=#000000;strokeColor=#BD7000;container=0;" parent="1" vertex="1">
                    <mxGeometry x="120" y="385" width="10" height="10" as="geometry"/>
                </mxCell>
                <mxCell id="96" value="" style="rounded=0;whiteSpace=wrap;html=1;fillColor=#f0a30a;fontColor=#000000;strokeColor=#BD7000;container=0;" parent="1" vertex="1">
                    <mxGeometry x="110" y="385" width="10" height="10" as="geometry"/>
                </mxCell>
                <mxCell id="98" value="" style="rounded=0;whiteSpace=wrap;html=1;fillColor=#f0a30a;fontColor=#000000;strokeColor=#BD7000;container=0;" parent="1" vertex="1">
                    <mxGeometry x="130" y="395" width="10" height="10" as="geometry"/>
                </mxCell>
                <mxCell id="99" value="" style="rounded=0;whiteSpace=wrap;html=1;fillColor=#f0a30a;fontColor=#000000;strokeColor=#BD7000;container=0;" parent="1" vertex="1">
                    <mxGeometry x="120" y="395" width="10" height="10" as="geometry"/>
                </mxCell>
                <mxCell id="100" value="" style="rounded=0;whiteSpace=wrap;html=1;fillColor=#f0a30a;fontColor=#000000;strokeColor=#BD7000;container=0;" parent="1" vertex="1">
                    <mxGeometry x="110" y="395" width="10" height="10" as="geometry"/>
                </mxCell>
                <mxCell id="85" value="" style="rounded=0;whiteSpace=wrap;html=1;fillColor=#f0a30a;fontColor=#000000;strokeColor=#BD7000;container=0;" parent="1" vertex="1">
                    <mxGeometry x="160" y="395" width="10" height="10" as="geometry"/>
                </mxCell>
                <mxCell id="86" value="" style="rounded=0;whiteSpace=wrap;html=1;fillColor=#f0a30a;fontColor=#000000;strokeColor=#BD7000;container=0;" parent="1" vertex="1">
                    <mxGeometry x="150" y="395" width="10" height="10" as="geometry"/>
                </mxCell>
                <mxCell id="87" value="" style="rounded=0;whiteSpace=wrap;html=1;fillColor=#f0a30a;fontColor=#000000;strokeColor=#BD7000;container=0;" parent="1" vertex="1">
                    <mxGeometry x="140" y="395" width="10" height="10" as="geometry"/>
                </mxCell>
                <mxCell id="26" value="" style="rounded=0;whiteSpace=wrap;html=1;fillColor=#f0a30a;fontColor=#000000;strokeColor=#BD7000;container=0;" parent="1" vertex="1">
                    <mxGeometry x="190" y="385" width="10" height="10" as="geometry"/>
                </mxCell>
                <mxCell id="27" value="" style="rounded=0;whiteSpace=wrap;html=1;fillColor=#f0a30a;fontColor=#000000;strokeColor=#BD7000;container=0;" parent="1" vertex="1">
                    <mxGeometry x="180" y="385" width="10" height="10" as="geometry"/>
                </mxCell>
                <mxCell id="28" value="" style="rounded=0;whiteSpace=wrap;html=1;fillColor=#f0a30a;fontColor=#000000;strokeColor=#BD7000;container=0;" parent="1" vertex="1">
                    <mxGeometry x="170" y="385" width="10" height="10" as="geometry"/>
                </mxCell>
                <mxCell id="30" value="" style="rounded=0;whiteSpace=wrap;html=1;fillColor=#f0a30a;fontColor=#000000;strokeColor=#BD7000;container=0;" parent="1" vertex="1">
                    <mxGeometry x="190" y="395" width="10" height="10" as="geometry"/>
                </mxCell>
                <mxCell id="31" value="" style="rounded=0;whiteSpace=wrap;html=1;fillColor=#f0a30a;fontColor=#000000;strokeColor=#BD7000;container=0;" parent="1" vertex="1">
                    <mxGeometry x="180" y="395" width="10" height="10" as="geometry"/>
                </mxCell>
                <mxCell id="32" value="" style="rounded=0;whiteSpace=wrap;html=1;fillColor=#f0a30a;fontColor=#000000;strokeColor=#BD7000;container=0;" parent="1" vertex="1">
                    <mxGeometry x="170" y="395" width="10" height="10" as="geometry"/>
                </mxCell>
                <mxCell id="103" value="" style="rounded=0;whiteSpace=wrap;html=1;fillColor=#f0a30a;fontColor=#000000;strokeColor=#BD7000;container=0;" parent="1" vertex="1">
                    <mxGeometry x="190" y="405" width="10" height="10" as="geometry"/>
                </mxCell>
                <mxCell id="104" value="" style="rounded=0;whiteSpace=wrap;html=1;fillColor=#f0a30a;fontColor=#000000;strokeColor=#BD7000;container=0;" parent="1" vertex="1">
                    <mxGeometry x="180" y="405" width="10" height="10" as="geometry"/>
                </mxCell>
                <mxCell id="105" value="" style="rounded=0;whiteSpace=wrap;html=1;fillColor=#f0a30a;fontColor=#000000;strokeColor=#BD7000;container=0;" parent="1" vertex="1">
                    <mxGeometry x="170" y="405" width="10" height="10" as="geometry"/>
                </mxCell>
                <mxCell id="108" value="" style="rounded=0;whiteSpace=wrap;html=1;fillColor=#f0a30a;fontColor=#000000;strokeColor=#BD7000;container=0;" parent="1" vertex="1">
                    <mxGeometry x="160" y="405" width="10" height="10" as="geometry"/>
                </mxCell>
                <mxCell id="109" value="" style="rounded=0;whiteSpace=wrap;html=1;fillColor=#f0a30a;fontColor=#000000;strokeColor=#BD7000;container=0;" parent="1" vertex="1">
                    <mxGeometry x="150" y="405" width="10" height="10" as="geometry"/>
                </mxCell>
                <mxCell id="110" value="" style="rounded=0;whiteSpace=wrap;html=1;fillColor=#f0a30a;fontColor=#000000;strokeColor=#BD7000;container=0;" parent="1" vertex="1">
                    <mxGeometry x="140" y="405" width="10" height="10" as="geometry"/>
                </mxCell>
                <mxCell id="112" value="" style="rounded=0;whiteSpace=wrap;html=1;fillColor=#f0a30a;fontColor=#000000;strokeColor=#BD7000;container=0;" parent="1" vertex="1">
                    <mxGeometry x="160" y="415" width="10" height="10" as="geometry"/>
                </mxCell>
                <mxCell id="113" value="" style="rounded=0;whiteSpace=wrap;html=1;fillColor=#f0a30a;fontColor=#000000;strokeColor=#BD7000;container=0;" parent="1" vertex="1">
                    <mxGeometry x="150" y="415" width="10" height="10" as="geometry"/>
                </mxCell>
                <mxCell id="114" value="" style="rounded=0;whiteSpace=wrap;html=1;fillColor=#f0a30a;fontColor=#000000;strokeColor=#BD7000;container=0;" parent="1" vertex="1">
                    <mxGeometry x="140" y="415" width="10" height="10" as="geometry"/>
                </mxCell>
                <mxCell id="117" value="" style="rounded=0;whiteSpace=wrap;html=1;fillColor=#f0a30a;fontColor=#000000;strokeColor=#BD7000;container=0;" parent="1" vertex="1">
                    <mxGeometry x="130" y="405" width="10" height="10" as="geometry"/>
                </mxCell>
                <mxCell id="118" value="" style="rounded=0;whiteSpace=wrap;html=1;fillColor=#f0a30a;fontColor=#000000;strokeColor=#BD7000;container=0;" parent="1" vertex="1">
                    <mxGeometry x="120" y="405" width="10" height="10" as="geometry"/>
                </mxCell>
                <mxCell id="119" value="" style="rounded=0;whiteSpace=wrap;html=1;fillColor=#f0a30a;fontColor=#000000;strokeColor=#BD7000;container=0;" parent="1" vertex="1">
                    <mxGeometry x="110" y="405" width="10" height="10" as="geometry"/>
                </mxCell>
                <mxCell id="121" value="" style="rounded=0;whiteSpace=wrap;html=1;fillColor=#f0a30a;fontColor=#000000;strokeColor=#BD7000;container=0;" parent="1" vertex="1">
                    <mxGeometry x="130" y="415" width="10" height="10" as="geometry"/>
                </mxCell>
                <mxCell id="122" value="" style="rounded=0;whiteSpace=wrap;html=1;fillColor=#f0a30a;fontColor=#000000;strokeColor=#BD7000;container=0;" parent="1" vertex="1">
                    <mxGeometry x="120" y="415" width="10" height="10" as="geometry"/>
                </mxCell>
                <mxCell id="123" value="" style="rounded=0;whiteSpace=wrap;html=1;fillColor=#f0a30a;fontColor=#000000;strokeColor=#BD7000;container=0;" parent="1" vertex="1">
                    <mxGeometry x="110" y="415" width="10" height="10" as="geometry"/>
                </mxCell>
                <mxCell id="125" value="" style="rounded=0;whiteSpace=wrap;html=1;fillColor=#f0a30a;fontColor=#000000;strokeColor=#BD7000;container=0;" parent="1" vertex="1">
                    <mxGeometry x="130" y="425" width="10" height="10" as="geometry"/>
                </mxCell>
                <mxCell id="126" value="" style="rounded=0;whiteSpace=wrap;html=1;fillColor=#f0a30a;fontColor=#000000;strokeColor=#BD7000;container=0;" parent="1" vertex="1">
                    <mxGeometry x="120" y="425" width="10" height="10" as="geometry"/>
                </mxCell>
                <mxCell id="127" value="" style="rounded=0;whiteSpace=wrap;html=1;fillColor=#f0a30a;fontColor=#000000;strokeColor=#BD7000;container=0;" parent="1" vertex="1">
                    <mxGeometry x="110" y="425" width="10" height="10" as="geometry"/>
                </mxCell>
                <mxCell id="129" value="" style="rounded=0;whiteSpace=wrap;html=1;fillColor=#f0a30a;fontColor=#000000;strokeColor=#BD7000;container=0;" parent="1" vertex="1">
                    <mxGeometry x="160" y="425" width="10" height="10" as="geometry"/>
                </mxCell>
                <mxCell id="130" value="" style="rounded=0;whiteSpace=wrap;html=1;fillColor=#f0a30a;fontColor=#000000;strokeColor=#BD7000;container=0;" parent="1" vertex="1">
                    <mxGeometry x="150" y="425" width="10" height="10" as="geometry"/>
                </mxCell>
                <mxCell id="131" value="" style="rounded=0;whiteSpace=wrap;html=1;fillColor=#f0a30a;fontColor=#000000;strokeColor=#BD7000;container=0;" parent="1" vertex="1">
                    <mxGeometry x="140" y="425" width="10" height="10" as="geometry"/>
                </mxCell>
                <mxCell id="133" value="" style="rounded=0;whiteSpace=wrap;html=1;fillColor=#f0a30a;fontColor=#000000;strokeColor=#BD7000;container=0;" parent="1" vertex="1">
                    <mxGeometry x="190" y="415" width="10" height="10" as="geometry"/>
                </mxCell>
                <mxCell id="134" value="" style="rounded=0;whiteSpace=wrap;html=1;fillColor=#f0a30a;fontColor=#000000;strokeColor=#BD7000;container=0;" parent="1" vertex="1">
                    <mxGeometry x="180" y="415" width="10" height="10" as="geometry"/>
                </mxCell>
                <mxCell id="135" value="" style="rounded=0;whiteSpace=wrap;html=1;fillColor=#f0a30a;fontColor=#000000;strokeColor=#BD7000;container=0;" parent="1" vertex="1">
                    <mxGeometry x="170" y="415" width="10" height="10" as="geometry"/>
                </mxCell>
                <mxCell id="137" value="" style="rounded=0;whiteSpace=wrap;html=1;fillColor=#f0a30a;fontColor=#000000;strokeColor=#BD7000;container=0;" parent="1" vertex="1">
                    <mxGeometry x="190" y="425" width="10" height="10" as="geometry"/>
                </mxCell>
                <mxCell id="138" value="" style="rounded=0;whiteSpace=wrap;html=1;fillColor=#f0a30a;fontColor=#000000;strokeColor=#BD7000;container=0;" parent="1" vertex="1">
                    <mxGeometry x="180" y="425" width="10" height="10" as="geometry"/>
                </mxCell>
                <mxCell id="139" value="" style="rounded=0;whiteSpace=wrap;html=1;fillColor=#f0a30a;fontColor=#000000;strokeColor=#BD7000;container=0;" parent="1" vertex="1">
                    <mxGeometry x="170" y="425" width="10" height="10" as="geometry"/>
                </mxCell>
                <mxCell id="142" value="" style="rounded=0;whiteSpace=wrap;html=1;fillColor=#f0a30a;fontColor=#000000;strokeColor=#BD7000;container=0;" parent="1" vertex="1">
                    <mxGeometry x="190" y="435" width="10" height="10" as="geometry"/>
                </mxCell>
                <mxCell id="143" value="" style="rounded=0;whiteSpace=wrap;html=1;fillColor=#f0a30a;fontColor=#000000;strokeColor=#BD7000;container=0;" parent="1" vertex="1">
                    <mxGeometry x="180" y="435" width="10" height="10" as="geometry"/>
                </mxCell>
                <mxCell id="144" value="" style="rounded=0;whiteSpace=wrap;html=1;fillColor=#f0a30a;fontColor=#000000;strokeColor=#BD7000;container=0;" parent="1" vertex="1">
                    <mxGeometry x="170" y="435" width="10" height="10" as="geometry"/>
                </mxCell>
                <mxCell id="147" value="" style="rounded=0;whiteSpace=wrap;html=1;fillColor=#f0a30a;fontColor=#000000;strokeColor=#BD7000;container=0;" parent="1" vertex="1">
                    <mxGeometry x="160" y="435" width="10" height="10" as="geometry"/>
                </mxCell>
                <mxCell id="148" value="" style="rounded=0;whiteSpace=wrap;html=1;fillColor=#f0a30a;fontColor=#000000;strokeColor=#BD7000;container=0;" parent="1" vertex="1">
                    <mxGeometry x="150" y="435" width="10" height="10" as="geometry"/>
                </mxCell>
                <mxCell id="149" value="" style="rounded=0;whiteSpace=wrap;html=1;fillColor=#f0a30a;fontColor=#000000;strokeColor=#BD7000;container=0;" parent="1" vertex="1">
                    <mxGeometry x="140" y="435" width="10" height="10" as="geometry"/>
                </mxCell>
                <mxCell id="151" value="" style="rounded=0;whiteSpace=wrap;html=1;fillColor=#f0a30a;fontColor=#000000;strokeColor=#BD7000;container=0;" parent="1" vertex="1">
                    <mxGeometry x="160" y="445" width="10" height="10" as="geometry"/>
                </mxCell>
                <mxCell id="152" value="" style="rounded=0;whiteSpace=wrap;html=1;fillColor=#f0a30a;fontColor=#000000;strokeColor=#BD7000;container=0;" parent="1" vertex="1">
                    <mxGeometry x="150" y="445" width="10" height="10" as="geometry"/>
                </mxCell>
                <mxCell id="153" value="" style="rounded=0;whiteSpace=wrap;html=1;fillColor=#f0a30a;fontColor=#000000;strokeColor=#BD7000;container=0;" parent="1" vertex="1">
                    <mxGeometry x="140" y="445" width="10" height="10" as="geometry"/>
                </mxCell>
                <mxCell id="156" value="" style="rounded=0;whiteSpace=wrap;html=1;fillColor=#f0a30a;fontColor=#000000;strokeColor=#BD7000;container=0;" parent="1" vertex="1">
                    <mxGeometry x="130" y="435" width="10" height="10" as="geometry"/>
                </mxCell>
                <mxCell id="157" value="" style="rounded=0;whiteSpace=wrap;html=1;fillColor=#f0a30a;fontColor=#000000;strokeColor=#BD7000;container=0;" parent="1" vertex="1">
                    <mxGeometry x="120" y="435" width="10" height="10" as="geometry"/>
                </mxCell>
                <mxCell id="158" value="" style="rounded=0;whiteSpace=wrap;html=1;fillColor=#f0a30a;fontColor=#000000;strokeColor=#BD7000;container=0;" parent="1" vertex="1">
                    <mxGeometry x="110" y="435" width="10" height="10" as="geometry"/>
                </mxCell>
                <mxCell id="160" value="" style="rounded=0;whiteSpace=wrap;html=1;fillColor=#f0a30a;fontColor=#000000;strokeColor=#BD7000;container=0;" parent="1" vertex="1">
                    <mxGeometry x="130" y="445" width="10" height="10" as="geometry"/>
                </mxCell>
                <mxCell id="161" value="" style="rounded=0;whiteSpace=wrap;html=1;fillColor=#f0a30a;fontColor=#000000;strokeColor=#BD7000;container=0;" parent="1" vertex="1">
                    <mxGeometry x="120" y="445" width="10" height="10" as="geometry"/>
                </mxCell>
                <mxCell id="162" value="" style="rounded=0;whiteSpace=wrap;html=1;fillColor=#f0a30a;fontColor=#000000;strokeColor=#BD7000;container=0;" parent="1" vertex="1">
                    <mxGeometry x="110" y="445" width="10" height="10" as="geometry"/>
                </mxCell>
                <mxCell id="164" value="" style="rounded=0;whiteSpace=wrap;html=1;fillColor=#f0a30a;fontColor=#000000;strokeColor=#BD7000;container=0;" parent="1" vertex="1">
                    <mxGeometry x="130" y="455" width="10" height="10" as="geometry"/>
                </mxCell>
                <mxCell id="165" value="" style="rounded=0;whiteSpace=wrap;html=1;fillColor=#f0a30a;fontColor=#000000;strokeColor=#BD7000;container=0;" parent="1" vertex="1">
                    <mxGeometry x="120" y="455" width="10" height="10" as="geometry"/>
                </mxCell>
                <mxCell id="166" value="" style="rounded=0;whiteSpace=wrap;html=1;fillColor=#f0a30a;fontColor=#000000;strokeColor=#BD7000;container=0;" parent="1" vertex="1">
                    <mxGeometry x="110" y="455" width="10" height="10" as="geometry"/>
                </mxCell>
                <mxCell id="168" value="" style="rounded=0;whiteSpace=wrap;html=1;fillColor=#f0a30a;fontColor=#000000;strokeColor=#BD7000;container=0;" parent="1" vertex="1">
                    <mxGeometry x="160" y="455" width="10" height="10" as="geometry"/>
                </mxCell>
                <mxCell id="169" value="" style="rounded=0;whiteSpace=wrap;html=1;fillColor=#f0a30a;fontColor=#000000;strokeColor=#BD7000;container=0;" parent="1" vertex="1">
                    <mxGeometry x="150" y="455" width="10" height="10" as="geometry"/>
                </mxCell>
                <mxCell id="170" value="" style="rounded=0;whiteSpace=wrap;html=1;fillColor=#f0a30a;fontColor=#000000;strokeColor=#BD7000;container=0;" parent="1" vertex="1">
                    <mxGeometry x="140" y="455" width="10" height="10" as="geometry"/>
                </mxCell>
                <mxCell id="172" value="" style="rounded=0;whiteSpace=wrap;html=1;fillColor=#f0a30a;fontColor=#000000;strokeColor=#BD7000;container=0;" parent="1" vertex="1">
                    <mxGeometry x="190" y="445" width="10" height="10" as="geometry"/>
                </mxCell>
                <mxCell id="173" value="" style="rounded=0;whiteSpace=wrap;html=1;fillColor=#f0a30a;fontColor=#000000;strokeColor=#BD7000;container=0;" parent="1" vertex="1">
                    <mxGeometry x="180" y="445" width="10" height="10" as="geometry"/>
                </mxCell>
                <mxCell id="174" value="" style="rounded=0;whiteSpace=wrap;html=1;fillColor=#f0a30a;fontColor=#000000;strokeColor=#BD7000;container=0;" parent="1" vertex="1">
                    <mxGeometry x="170" y="445" width="10" height="10" as="geometry"/>
                </mxCell>
                <mxCell id="176" value="" style="rounded=0;whiteSpace=wrap;html=1;fillColor=#f0a30a;fontColor=#000000;strokeColor=#BD7000;container=0;" parent="1" vertex="1">
                    <mxGeometry x="190" y="455" width="10" height="10" as="geometry"/>
                </mxCell>
                <mxCell id="177" value="" style="rounded=0;whiteSpace=wrap;html=1;fillColor=#f0a30a;fontColor=#000000;strokeColor=#BD7000;container=0;" parent="1" vertex="1">
                    <mxGeometry x="180" y="455" width="10" height="10" as="geometry"/>
                </mxCell>
                <mxCell id="178" value="" style="rounded=0;whiteSpace=wrap;html=1;fillColor=#f0a30a;fontColor=#000000;strokeColor=#BD7000;container=0;" parent="1" vertex="1">
                    <mxGeometry x="170" y="455" width="10" height="10" as="geometry"/>
                </mxCell>
            </root>
        </mxGraphModel>
    </diagram>
</mxfile>